<svg version="1.1" viewBox="0 0 512 512" xmlns="http://www.w3.org/2000/svg">
  <g id="channels" transform="scale(.25)" stroke-miterlimit="2" stroke-width="0">
    <path d="m684 800v1248h724c169.74 0 332.53-67.428 452.55-187.45 120.02-120.02 187.45-282.81 187.45-452.55v-384l-232-224z" fill="#f66151" style="paint-order:markers stroke fill"/>
    <path d="m0 1020v388c0 169.74 67.428 332.53 187.45 452.55 120.02 120.02 282.81 187.45 452.55 187.45h48v-1028z" fill="#dc8add" style="paint-order:markers stroke fill"/>
    <path d="m1024 0v796l1024 4v-160c0-169.74-67.428-332.53-187.45-452.55-120.02-120.02-282.81-187.45-452.55-187.45z" fill="#8ff0a4" style="paint-order:markers stroke fill"/>
    <path d="m0 640v384h1028v-1024h-388c-169.74 0-332.53 67.428-452.55 187.45-120.02 120.02-187.45 282.81-187.45 452.55z" fill="#99c1f1" style="paint-order:markers stroke fill"/>
  </g>
  <path id="icon" d="m342.5 85c-92.15 0-166.77 46.598-170.5 115-74.619 0-136.67 20.673-172 56l172 54v115c99.093 0 100-169 100-169s-4.3842-56 70.5-56h41.5c39.396 0 70 19.412 70 56h58v-56c0-70.912-74.951-115-169.5-115z" fill="#fff" stroke-miterlimit="2" stroke-width="0" style="paint-order:markers stroke fill"/>
</svg>
